<svg width="80" height="48" viewBox="0 0 80 48" fill="none" xmlns="http://www.w3.org/2000/svg">
<path d="M16.1864 22.7647C16.7991 19.3435 17.1055 17.0283 17.1055 16.4467C17.1055 16.121 16.9995 15.8882 16.7872 15.7485C16.5751 15.6088 16.1982 15.5443 15.6562 15.5443C15.2673 15.5443 14.6781 15.6904 14.2776 15.993C13.9004 16.2955 13.6177 16.7958 13.4291 17.494C12.8636 19.5647 12.2744 21.6239 11.6616 23.0433C11.0726 24.4627 10.5923 25.6478 9.98476 26.4657C9.10996 27.6433 7.03485 28.2471 6.51452 26.7954C6.14286 25.7586 6.37307 24.6725 6.51452 23.8116C6.65597 22.9274 6.82081 22.0082 7.00955 21.0542C7.151 20.3562 7.33948 19.2629 7.57517 18.402C7.83425 17.3316 7.96404 16.7034 7.96404 16.5173C7.96404 16.1915 7.85808 15.9472 7.64603 15.7842C7.45755 15.6212 7.10921 15.5453 6.5857 15.5453C6.32316 15.5454 5.65894 15.4815 5.2349 15.7842C4.81073 16.0867 4.57881 16.5521 4.34312 17.2501C3.80088 18.8789 3.41226 20.7402 3.17657 22.2063C2.73895 24.8866 1.29705 31.1375 6.95893 31.1375C9.59281 31.1375 11.1935 29.7915 12.0629 28.6304C11.4567 31.0875 10.8558 33.5459 10.2403 36.0007C9.64073 38.6141 8.20691 44.6954 4.84282 44.6954C3.99365 44.6954 3.6871 43.9747 3.6871 43.2529C3.6871 40.1445 6.84234 38.1886 9.24834 36.4318C9.52747 35.2665 10.0038 33.3152 10.2788 32.1789C6.92716 34.0631 2.55399 36.96 0.671589 40.4026C-0.404565 42.3706 -0.19469 45.4014 1.35387 46.8832C2.10798 47.6278 3.08605 47.9999 4.2879 47.9999C10.1443 47.9999 12.8097 43.1892 14.1434 35.2231C14.8327 31.0716 15.5065 26.9177 16.1864 22.7647Z" fill="#C1CAE1"/>
<path d="M57.2853 26.0149C55.9503 27.184 53.2456 28.8715 51.5443 27.4716C51.1017 27.108 50.7672 26.4126 50.5235 25.5206C50.513 25.4827 50.5026 25.4441 50.4923 25.4046C50.4921 25.4041 50.492 25.4036 50.4918 25.4031C50.4659 25.3035 50.4405 25.1986 50.4159 25.0888C50.3985 25.0117 50.3818 24.9318 50.3653 24.8501C50.1944 24.0197 50.0853 23.0719 50.0294 22.0851C50.0258 21.9947 50.0229 21.9015 50.0203 21.807C49.9739 20.7558 50.0213 19.7038 50.0834 18.6541C50.1863 16.9146 50.2872 15.1285 50.5939 13.4343C51.1124 10.5721 51.9924 8.37406 52.6759 6.44274C53.3595 4.51148 53.9719 3.54598 54.5139 3.54598C55.1738 3.54598 55.0442 4.46878 55.0442 6.23734C55.0442 10.833 53.3467 16.4482 50.8967 20.5614C50.8811 21.4792 50.9398 22.5564 51.0655 23.5571C51.0701 23.5935 51.0749 23.6298 51.0796 23.6659C51.0808 23.6748 51.0819 23.6838 51.0831 23.6926C51.0932 23.7682 51.1011 23.845 51.1149 23.9201C51.1689 24.2898 51.2313 24.6355 51.3007 24.9387C51.3017 24.9428 51.3026 24.947 51.3035 24.951C51.3167 25.0081 51.3301 25.0637 51.3438 25.1176C51.3448 25.1214 51.3456 25.1251 51.3466 25.1288C51.3608 25.184 51.375 25.2375 51.3896 25.2889C51.3898 25.2895 51.39 25.2901 51.3901 25.2906C53.543 22.6997 55.3043 19.5962 56.5321 16.3145C56.6594 15.0349 56.8543 13.762 57.0646 12.5237L57.0666 12.5119C57.4478 10.5868 57.8687 8.6009 58.4657 6.72816C58.4705 6.52915 58.4732 6.33065 58.4732 6.13278C58.4732 3.81773 58.2422 0 55.0444 0C49.9934 0 48.276 7.82435 47.5003 11.5563C46.77 15.1862 46.5275 16.6784 46.5275 19.5174C46.5275 20.4802 46.5982 21.5683 46.7279 22.663C46.8236 23.5176 46.968 24.3682 47.145 25.2097C47.5715 27.1089 48.3005 29.0912 49.9327 30.2946C52.561 32.0128 56.2711 30.8585 58.5568 29.0409C57.9827 28.1045 57.5841 27.0655 57.2853 26.0149Z" fill="#C1CAE1"/>
<path d="M64.8595 27.9356C63.914 28.1382 63.1123 27.9419 62.5028 27.4447C62.5188 27.4575 62.4869 27.4322 62.5028 27.4447C62.4799 27.426 62.4694 27.4172 62.4468 27.3973C62.4054 27.3605 62.3041 27.2751 62.2641 27.234C62.2514 27.2209 62.2393 27.2071 62.2268 27.1936C62.1852 27.1482 62.144 27.1007 62.1039 27.0506C62.0812 27.0226 62.0592 26.994 62.0372 26.9651C62.0197 26.9411 62.0024 26.9158 61.9852 26.8908C61.8722 26.7308 61.7714 26.5555 61.6831 26.3658C61.6643 26.327 61.6456 26.2881 61.6275 26.2479C61.6263 26.2453 61.6253 26.2429 61.624 26.2403C60.7968 24.3972 60.561 20.9907 60.9551 16.4354C61.0327 15.2765 61.155 14.114 61.3571 12.9972C61.8757 10.1352 62.7559 7.93694 63.439 6.00568C64.1227 4.07436 64.6211 3.54496 65.1631 3.54496C65.8229 3.54496 65.8076 4.03128 65.8076 5.79997C65.8076 10.3969 63.9677 16.3201 61.6673 20.5564C61.6673 20.7599 61.6688 20.9384 61.6725 21.1053C61.6774 21.3023 61.6848 21.5002 61.6948 21.6973C61.7112 21.9988 61.7356 22.3173 61.7698 22.7436C61.8219 23.2957 61.8928 23.822 61.98 24.2901C62.0642 24.721 62.1615 25.1112 62.2486 25.3551C66.331 20.1581 69.2363 12.1738 69.2363 5.69534C69.2363 3.07261 69.087 0.00448608 65.8076 0.00448608C63.3158 0.00448608 61.6357 1.80157 60.4793 4.07031L60.4814 4.07133C59.4166 6.20596 58.7682 8.72931 58.241 11.2315C58.1009 11.93 57.9789 12.549 57.8737 13.1136C57.6081 14.7226 57.3788 16.3821 57.3039 18.0235C57.2949 18.3578 57.2906 18.7069 57.2906 19.0798C57.2906 19.7214 57.322 20.4188 57.3812 21.1367C57.3837 21.1598 57.3858 21.183 57.3883 21.2061C57.4433 21.855 57.5194 22.5197 57.6178 23.1745H57.6184C57.6982 23.7466 57.8053 24.3145 57.9267 24.8791C58.1927 26.0579 58.5306 27.0122 58.8976 27.7856C59.1618 28.3364 59.4707 28.8716 59.8689 29.3396C60.0384 29.5318 60.2138 29.725 60.417 29.8831C61.3589 30.6938 62.5852 31.1692 64.229 31.125C65.5814 31.0888 66.9409 30.6887 68.0178 30.121C67.1536 29.2526 66.6411 28.2525 66.34 27.4139C65.9236 27.639 65.3029 27.8407 64.8595 27.9356Z" fill="#C1CAE1"/>
<path d="M18.2878 26.7311C17.7304 27.7654 16.8964 29.0516 15.939 29.813L15.235 33.9337C17.0745 32.9736 18.7663 31.7183 20.071 29.9561C19.3901 29.2375 18.8561 28.3679 18.4929 27.3712C18.4141 27.1552 18.3465 26.9413 18.2878 26.7311Z" fill="#C1CAE1"/>
<path d="M79.3024 19.0771C78.8379 18.0206 78.1403 17.1732 77.2107 16.5349C76.2811 15.8746 75.1633 15.5444 73.8569 15.5444C72.5064 15.5444 71.2886 15.9186 70.204 16.6669C69.1193 17.3933 68.2558 18.4168 67.6138 19.7374C66.9943 21.036 66.6842 22.5217 66.6842 24.1945C66.6842 24.7239 66.747 25.2361 66.836 25.736C66.872 25.9906 66.9257 26.2569 66.9994 26.5292C67.0007 26.5338 67.002 26.5385 67.0033 26.5433C67.0084 26.5614 67.0135 26.5796 67.0186 26.5977C67.118 26.9374 67.2384 27.2699 67.3812 27.595C67.4069 27.6521 67.4325 27.7083 67.4587 27.7642C67.4735 27.7942 67.4876 27.8238 67.5024 27.8536C67.5062 27.8612 67.51 27.8687 67.5139 27.8763C68.0431 28.9273 68.8778 29.9287 70.0899 30.5482C70.8779 30.934 71.7787 31.1277 72.7941 31.1277C74.1228 31.1277 75.3291 30.7646 76.4137 30.0381C77.5208 29.2898 78.3952 28.2663 79.0372 26.9677C79.6791 25.6471 80.0001 24.1504 80.0001 22.4776C80.0001 21.2671 79.7675 20.1336 79.3024 19.0771ZM75.0524 26.3404C74.543 27.1548 73.912 27.5621 73.1593 27.5621C72.4955 27.5621 71.942 27.265 71.4993 26.6705C71.0567 26.0762 70.835 25.1519 70.835 23.8973C70.835 22.3126 71.0893 21.124 71.5986 20.3317C72.1304 19.5173 72.7941 19.1101 73.591 19.1101C74.2113 19.1101 74.7424 19.4182 75.185 20.0345C75.6277 20.6508 75.8493 21.5642 75.8493 22.7748C75.8493 24.3375 75.5835 25.5261 75.0524 26.3404Z" fill="#C1CAE1"/>
<path d="M46.3635 25.8182C44.9793 26.929 43.4824 27.8268 41.4113 27.8673C37.5963 27.8673 37.2133 22.7366 38.701 20.2097C39.2817 19.2612 39.9855 18.787 40.8119 18.787C41.214 18.787 41.5267 18.9194 41.7502 19.184C41.996 19.4266 42.1189 19.7575 42.1189 20.1766C42.1189 20.9927 41.739 21.7095 40.9796 22.3271C40.4016 22.7972 39.6569 23.1759 38.7555 23.4671C38.7502 24.6019 39.1522 25.8226 39.8297 26.456C41.3877 26.0041 42.7826 25.1501 43.9937 23.8273C45.1106 22.7245 45.6707 21.3015 45.6707 19.7795C45.6707 18.4782 45.2797 17.4525 44.4979 16.7026C43.7161 15.9306 42.6773 15.5446 41.3816 15.5446C39.9297 15.5446 38.6229 15.9306 37.4614 16.7026C36.537 17.3289 35.7138 18.1138 35.1739 19.1258C34.8911 19.6559 34.6597 20.2621 34.4821 20.895C34.394 21.1872 33.9653 22.7377 34.0864 24.6024C34.2137 26.3913 34.8455 28.1436 36.1251 29.4417C37.2511 30.5184 38.6043 31.1278 40.5775 31.1278C43.2144 31.1278 45.4668 30.4671 47.5704 28.9141C47.0094 27.9531 46.6309 26.8924 46.3635 25.8182Z" fill="#C1CAE1"/>
<path d="M33.2127 24.929C33.1407 24.1599 33.1574 23.4422 33.2155 22.8142C32.8725 22.6577 32.5117 22.4804 32.1469 22.2765C32.1225 21.1414 31.8911 20.0748 31.4519 19.0771C30.9869 18.0206 30.2896 17.1732 29.36 16.5349C28.4301 15.8746 27.3122 15.5444 26.006 15.5444C24.6556 15.5444 23.438 15.9186 22.3533 16.6669C21.2684 17.3933 20.4052 18.4168 19.7631 19.7374C19.4327 20.4296 19.1911 21.1756 19.0369 21.9741C18.9496 22.4821 18.9101 22.9909 18.8636 23.5026C18.8291 24.1526 18.8441 24.8033 18.9267 25.4225C18.9261 25.418 18.9273 25.427 18.9267 25.4225C18.9997 25.9284 19.1257 26.4914 19.337 27.0712C19.9239 28.6815 20.9536 29.8772 22.4059 30.6093C23.1779 31.0019 24.0835 31.1277 24.9432 31.1277C26.2714 31.1277 27.4779 30.7647 28.5627 30.0382C29.6696 29.2898 30.544 28.2664 31.186 26.9678C31.4164 26.4938 31.5617 26.1335 31.7095 25.6143C32.1966 25.8615 32.7815 26.0693 33.4282 26.2618C33.427 26.2568 33.4261 26.2516 33.4248 26.2464C33.3274 25.8242 33.2555 25.3856 33.2127 24.929ZM27.2016 26.3405C26.6924 27.1549 26.0615 27.5621 25.3088 27.5621C24.6447 27.5621 24.0912 27.265 23.6485 26.6706C23.2057 26.0763 22.9844 25.1519 22.9844 23.8973C22.9844 22.3126 23.2392 21.124 23.7481 20.3317C24.2795 19.5173 24.9435 19.1101 25.7407 19.1101C26.3606 19.1101 26.8919 19.4182 27.3346 20.0345C27.7774 20.6508 27.9988 21.5642 27.9988 22.7748C27.9986 24.3376 27.7329 25.5261 27.2016 26.3405Z" fill="#C1CAE1"/>
</svg>
