<svg width="100" height="100" viewBox="0 0 100 100" fill="none" xmlns="http://www.w3.org/2000/svg">
<path d="M0 50C0 31.3077 0 21.9615 4.01924 15C6.65229 10.4394 10.4394 6.65229 15 4.01924C21.9615 0 31.3077 0 50 0C68.6923 0 78.0385 0 85 4.01924C89.5606 6.65229 93.3477 10.4394 95.9808 15C100 21.9615 100 31.3077 100 50C100 68.6923 100 78.0385 95.9808 85C93.3477 89.5606 89.5606 93.3477 85 95.9808C78.0385 100 68.6923 100 50 100C31.3077 100 21.9615 100 15 95.9808C10.4394 93.3477 6.65229 89.5606 4.01924 85C0 78.0385 0 68.6923 0 50Z" fill="#FFDD02"/>
<path d="M62.3342 30.3112C63.657 22.8308 64.3184 17.7686 64.3184 16.4969C64.3184 15.7847 64.0897 15.2759 63.6312 14.9704C63.1733 14.665 62.3598 14.5239 61.1897 14.5239C60.3501 14.5239 59.0779 14.8433 58.2132 15.5049C57.3989 16.1663 56.7886 17.2603 56.3812 18.7868C55.1606 23.3145 53.8885 27.8168 52.5653 30.9204C51.2938 34.0239 50.257 36.615 48.9451 38.4034C47.0565 40.9784 42.5764 42.2983 41.453 39.1243C40.6517 36.8602 41.1476 34.4825 41.453 32.6002C41.7584 30.6668 42.1143 28.6571 42.5217 26.5712C42.8271 25.0451 43.2341 22.6545 43.7429 20.772C44.3022 18.4316 44.5825 17.058 44.5825 16.6511C44.5825 15.9388 44.3537 15.4048 43.8959 15.0484C43.489 14.6919 42.7259 14.5141 41.6067 14.526C39.6601 14.5464 39.6058 14.3865 38.6903 15.0484C37.7746 15.7096 37.2739 16.7273 36.765 18.2535C35.5944 21.8149 34.7554 25.8846 34.2465 29.0901C33.3017 34.9506 30.1887 48.6181 42.4126 48.6181C48.0989 48.6181 51.5535 45.6859 53.4307 43.1473L52.0966 48.6181L52.0984 48.6186C52.0798 48.6943 50.6419 54.6272 49.497 59.2516C48.2025 64.9655 45.1069 78.2623 37.844 78.2623C36.0107 78.2623 35.3489 76.6865 35.3489 75.1083C35.3489 68.3119 42.161 64.0354 47.3554 60.194C47.958 57.646 48.9863 53.3798 49.58 50.8951C42.3442 55.015 32.9025 61.3491 28.8385 68.8762C26.5151 73.1794 26.9682 79.8059 30.3115 83.046C31.9396 84.6741 34.0512 85.4877 36.646 85.4877C49.2884 85.4877 55.0432 74.9722 57.9229 57.5554C59.411 48.4767 60.8674 39.3933 62.3342 30.3112Z" fill="#212121"/>
<path d="M70.1826 28.6832C69.383 35.6386 65.3285 42.8318 61.8011 45.7154L60.2761 54.7328C64.9164 52.3708 70.0195 48.1199 72.3718 43.2899C73.526 40.9195 75.051 35.8213 74.3725 30.4675C73.8429 26.2875 70.409 26.7143 70.1826 28.6832Z" fill="#212121"/>
</svg>
